<?xml version="1.0" encoding="UTF-8" standalone="no"?>
<svg width="15px" height="16px" viewBox="0 0 15 16" version="1.1" xmlns="http://www.w3.org/2000/svg" xmlns:xlink="http://www.w3.org/1999/xlink">
  <!-- Generator: Sketch 41 (35326) - http://www.bohemiancoding.com/sketch -->
  <title>Group 12 Copy@1x</title>
  <desc>Created with Sketch.</desc>
  <defs></defs>
  <g id="Page-1" stroke="none" stroke-width="1" fill="none" fill-rule="evenodd">
    <g id="iPhone-7-Copy-62" transform="translate(-1.000000, 0.000000)" fill="#666666">
      <g id="Group-12-Copy">
        <path d="M7.73431416,10.2906271 L7.73431416,15.2636096 C7.73431416,15.5590343 7.92448619,15.7559841 8.20974424,15.7559841 C8.49500228,15.7559841 8.68517431,15.5590343 8.68517431,15.2636096 L8.68517431,10.2906271 C9.77866348,10.0444398 10.5868946,9.05969083 10.5868946,7.87799203 C10.5868946,6.69629322 9.77866348,5.71154422 8.68517431,5.46535697 L8.68517431,0.492374502 C8.68517431,0.196949801 8.49500228,0 8.20974424,0 C7.92448619,0 7.73431416,0.196949801 7.73431416,0.492374502 L7.73431416,5.46535697 C6.64082499,5.71154422 5.83259387,6.69629322 5.83259387,7.87799203 C5.83259387,9.05969083 6.64082499,10.0444398 7.73431416,10.2906271 L7.73431416,10.2906271 Z M8.20974424,6.40086852 C9.01797536,6.40086852 9.63603446,7.04095537 9.63603446,7.87799203 C9.63603446,8.71502868 9.01797536,9.35511553 8.20974424,9.35511553 C7.40151311,9.35511553 6.78345402,8.71502868 6.78345402,7.87799203 C6.78345402,7.04095537 7.40151311,6.40086852 8.20974424,6.40086852 L8.20974424,6.40086852 Z" id="Shape"></path>
        <path d="M12.7638639,12.7524996 L12.7638639,15.2636096 C12.7638639,15.5590343 12.9540359,15.7559841 13.239294,15.7559841 C13.524552,15.7559841 13.714724,15.5590343 13.714724,15.2636096 L13.714724,12.7524996 C14.5229552,12.5555498 15.1410143,11.7677506 15.1410143,10.832239 C15.1410143,9.89672748 14.5229552,9.15816573 13.714724,8.91197848 L13.714724,0.492374502 C13.714724,0.196949801 13.524552,0 13.239294,0 C12.9540359,0 12.7638639,0.196949801 12.7638639,0.492374502 L12.7638639,8.91197848 C11.9556328,9.10892828 11.3375737,9.89672748 11.3375737,10.832239 C11.3375737,11.7677506 11.9556328,12.5063123 12.7638639,12.7524996 L12.7638639,12.7524996 Z M13.239294,9.84749003 C13.762267,9.84749003 14.1901541,10.2906271 14.1901541,10.832239 C14.1901541,11.373851 13.762267,11.816988 13.239294,11.816988 C12.7163209,11.816988 12.2884338,11.373851 12.2884338,10.832239 C12.2884338,10.2906271 12.7163209,9.84749003 13.239294,9.84749003 L13.239294,9.84749003 Z" id="Shape"></path>
        <path d="M2.4879016,6.84400557 L2.4879016,15.2636096 C2.4879016,15.5590343 2.67807362,15.7559841 2.96333167,15.7559841 C3.24858971,15.7559841 3.43876174,15.5590343 3.43876174,15.2636096 L3.43876174,6.84400557 C4.24699287,6.64705577 4.86505196,5.85925657 4.86505196,4.92374502 C4.86505196,3.98823346 4.24699287,3.24967171 3.43876174,3.00348446 L3.43876174,0.492374502 C3.43876174,0.196949801 3.24858971,0 2.96333167,0 C2.67807362,0 2.4879016,0.196949801 2.4879016,0.492374502 L2.4879016,3.00348446 C1.67967047,3.20043426 1.06161137,3.98823346 1.06161137,4.92374502 C1.06161137,5.85925657 1.67967047,6.59781832 2.4879016,6.84400557 L2.4879016,6.84400557 Z M2.96333167,3.93899601 C3.48630475,3.93899601 3.91419182,4.38213307 3.91419182,4.92374502 C3.91419182,5.46535697 3.48630475,5.90849402 2.96333167,5.90849402 C2.44035859,5.90849402 2.01247152,5.46535697 2.01247152,4.92374502 C2.01247152,4.38213307 2.44035859,3.93899601 2.96333167,3.93899601 L2.96333167,3.93899601 Z" id="Shape"></path>
      </g>
    </g>
  </g>
</svg>
